<?xml version="1.0" encoding="UTF-8" standalone="no"?>
<!-- Created with Inkscape (http://www.inkscape.org/) -->

<svg
   version="1.1"
   id="svg1"
   width="134.39999"
   height="135.27271"
   viewBox="0 0 134.39999 135.2727"
   xmlns="http://www.w3.org/2000/svg"
   xmlns:svg="http://www.w3.org/2000/svg">
  <defs
     id="defs1" />
  <g
     id="g33"
     transform="translate(-0.14545498,-3.2)">
    <path
       style="fill:#000000;fill-opacity:1;stroke:none;image-rendering:optimizeQuality"
       d="M 87.272729,136.72727 H 48.145456 v -10.18182 h -1.745455 v 11.92727 H 89.018184 V 99.636361 l -1.505203,0.475619 -0.240234,2.43348 -1.8e-5,5.81817 v 28.36364"
       id="path19" />
    <path
       style="fill:#000000;fill-opacity:1;stroke:none;image-rendering:optimizeQuality"
       d="m 116.07273,49.599999 c 0.18995,0.479563 0.37038,1.021955 0.78254,1.361923 0.89383,0.737269 2.79069,0.383531 3.87201,0.383531 H 132.8 v 39.127272 h -12.21818 c 0.19443,0.48386 0.38521,1.018927 0.80115,1.361923 0.81991,0.676127 2.42894,0.383531 3.41703,0.383531 h 9.74546 v -42.61818 h -18.47273"
       id="path17" />
    <path
       style="fill:#000000;fill-opacity:1;stroke:none;image-rendering:optimizeQuality"
       d="m 0.14545455,49.599999 v 42.61818 H 39.127274 L 38.400001,90.472725 H 1.8909091 V 51.345453 H 19.927273 L 19.345455,49.599999 H 0.14545455"
       id="path16" />
    <path
       style="fill:#000000;fill-opacity:1;stroke:none;image-rendering:optimizeQuality"
       d="M 69.818183,85.672725 62.740369,73.454544 59.345456,67.927271 49.309092,85.672725 H 49.163637 L 43.76998,73.890907 34.151636,53.090908 l -4.232231,-9.163636 -2.06576,-4.03347 -2.108485,-0.47476 -4.217887,-8.61e-4 2.999383,6.690909 5.44882,11.781818 18.606343,40.290908 h 0.290909 L 59.49091,79.41818 l 4.82077,8.581818 2.065039,4.072727 -0.521426,2.036363 -1.395921,3.054546 -5.405686,11.781816 -1.469439,3.19838 -1.2282,1.65114 -3.99241,0.24139 h -9.018182 l -0.145454,5.81818 h 17.309091 c 0.898336,-2.38012 2.07421,-4.66949 3.132684,-6.98182 1.842858,-4.02587 3.687611,-8.05087 5.539236,-12.07272 C 74.860531,88.463705 80.58696,76.150646 86.353136,63.854544 l 6.467249,-13.818182 c 0.522825,-1.112695 1.022701,-2.2375 1.561577,-3.342524 0.2909,-0.59652 0.61448,-1.286639 1.261195,-1.563672 0.673846,-0.288654 1.532378,-0.184366 2.247772,-0.184668 0.976083,-4.09e-4 2.490621,-0.268821 3.341801,0.308656 0.86506,0.586905 1.17945,2.113174 1.53635,3.036754 0.91885,2.377814 1.75523,4.815394 2.83092,7.127272 H 93.672729 l 2.996431,7.709091 6.05499,14.981818 3.45767,8.727272 H 86.400002 l 3.927273,-9.163636 -3.927202,2.13e-4 c -0.657893,0.001 -1.465323,-0.08812 -2.06377,0.241176 -1.115953,0.614062 -1.618119,2.733629 -2.10601,3.831338 -1.57935,3.553392 -3.439755,7.084278 -4.703019,10.763637 H 114.76364 L 106.91632,73.01818 102.10909,61.236362 h 11.78182 c -0.58541,-2.135334 -1.51852,-4.194771 -2.32463,-6.254545 -1.25052,-3.195357 -2.4864,-6.397177 -3.71772,-9.6 -0.5224,-1.358851 -1.04352,-2.719141 -1.58159,-4.071866 -0.23245,-0.584384 -0.45159,-1.345739 -0.98922,-1.728524 -0.61724,-0.439462 -1.58179,-0.307999 -2.29597,-0.308594 l -5.090869,-1.07e-4 c -1.454394,0 -2.908958,-0.0066 -4.363334,8.61e-4 -0.666575,0.0034 -1.452584,-0.05104 -2.008239,0.385982 -1.057023,0.831339 -1.568244,2.788388 -2.121192,3.976794 l -4.218182,9.018181 c -3.500248,7.52286 -7.060511,15.017889 -10.550692,22.545454 -1.608337,3.46883 -3.460485,6.894354 -4.811089,10.472727"
       id="path13" />
    <path
       style="fill:#000000;fill-opacity:1;stroke:none;image-rendering:optimizeQuality"
       d="M 46.400001,3.1999999 V 51.054544 h 1.745455 V 4.9454544 H 87.272729 V 33.599999 h 1.745455 V 3.1999999 H 46.400001"
       id="path9" />
  </g>
</svg>
