<?xml version="1.0" encoding="UTF-8" standalone="no"?>
<!-- Created with Inkscape (http://www.inkscape.org/) -->

<svg
   version="1.1"
   id="svg1"
   width="454.1091"
   height="139.78181"
   viewBox="0 0 454.1091 139.78181"
   xmlns="http://www.w3.org/2000/svg"
   xmlns:svg="http://www.w3.org/2000/svg">
  <defs
     id="defs1" />
  <g
     id="g1">
    <path
       style="fill:#ffffff;fill-opacity:1;stroke:none"
       d="m 192.43637,0.14545454 -16.23063,40.14545346 -5.09393,12.654545 -2.96635,6.836364 -1.68748,-5.090909 -2.9091,-8.290909 -9.36894,-26.763636 -3.77805,-10.763636 -1.01879,-2.9082296 -0.82336,-1.6503817 -2.52341,-0.3867987 -6.39996,-4.44e-5 7.02161,19.3454544 13.40935,36.799999 8.07813,22.254545 c 1.42312,-1.778507 2.06933,-4.446094 2.90909,-6.545455 1.72743,-4.318528 3.47908,-8.627405 5.20724,-12.945454 3.3969,-8.487624 6.78621,-16.978702 10.21236,-25.454545 2.00654,-4.963885 4.25979,-9.90458 5.96222,-14.981818 h 0.14545 l 4.48001,11.345455 8.78246,21.818181 7.07209,17.599999 3.8109,9.309091 3.91418,-10.618181 7.10112,-19.490909 17.63924,-48.4363624 -6.39998,4.44e-5 -2.53421,0.3867987 -0.76668,1.5056906 -1.01932,2.9074662 -3.82714,10.9090905 -9.12534,26.036363 -3.00348,8.581818 -1.83294,5.527273 -2.50181,-5.672727 -3.75273,-9.309091 L 198.98182,16 194.75641,5.5272726 192.43637,0.14545454 m 108.21818,0 -5.84428,14.54545446 -8.87273,21.963636 -5.9948,14.836363 -3.43364,8.290909 -14.01547,-39.999999 -3.82757,-10.909091 -1.01891,-2.9082296 -0.8461,-1.6503817 -2.54652,-0.3867987 -6.39998,-4.44e-5 28.65455,78.5454524 h 0.14545 l 10.96728,-27.345454 13.17818,-32.727272 10.96722,27.345454 13.17823,32.727272 4.06431,-10.90909 8.85465,-24.290909 10.49922,-28.799999 5.23637,-14.5454544 -6.25455,1.78e-5 -2.55664,0.3086825 -0.794,1.4396839 -0.96956,2.7607066 -3.72767,10.6181816 -9.58835,27.345454 -3.05455,8.727272 -1.85468,4.654546 -2.09475,-5.527273 -3.65611,-9.018182 -8.93281,-22.10909 -6.22855,-15.4181813 -3.23324,-7.56363616 M 46.400001,3.1999999 V 51.054544 h 1.745455 V 4.9454544 H 87.272729 V 33.599999 h 1.745455 V 3.1999999 H 46.400001 M 362.32728,3.9272726 V 78.690907 h 13.23636 c 8.6815,0 18.25334,-0.242676 25.16282,-6.331809 10.53864,-9.287384 6.28964,-30.92381 -8.29009,-33.522735 2.1608,-1.846529 4.18704,-3.657005 5.46605,-6.254546 2.88345,-5.85601 2.49116,-14.467418 -1.14392,-19.927272 -1.58964,-2.387624 -3.83264,-4.1562498 -6.35849,-5.4724607 -8.51119,-4.4351561 -18.81385,-3.2548117 -28.07273,-3.2548117 m 73.30909,0.8727273 V 18.618181 h 3.92728 V 9.5999998 c 6.81324,0.4404652 11.54588,7.6398262 10.13309,14.1090902 -0.88079,4.033203 -3.91555,7.406428 -7.51491,9.302672 -8.90931,4.693697 -20.47028,-1.872185 -20.62976,-12.066308 -0.0704,-4.496529 2.34808,-8.344247 5.64794,-11.1999997 -0.62834,-0.8694158 -1.71587,-2.5387606 -2.90888,-2.6008345 -0.68231,-0.035502 -1.26541,0.5728338 -1.70213,1.0191318 -1.16168,1.1871537 -2.12905,2.5848984 -2.89734,4.0544304 -2.44755,4.681587 -2.83,10.505299 -0.83576,15.418181 1.15164,2.837091 3.05824,5.336363 5.43502,7.261541 8.04655,6.517711 20.08665,4.877477 26.3043,-3.334277 6.13316,-8.10016 3.69889,-20.638539 -5.64976,-25.1082561 -2.97688,-1.4232954 -6.06417,-1.655371 -9.30909,-1.655371 M 370.76364,36.799999 V 11.636363 c 3.84063,0 7.70469,-0.06783 11.49091,0.689853 1.85941,0.372106 3.8113,0.910272 5.37916,2.018794 1.6044,1.134375 2.59467,2.844966 3.11896,4.709535 1.32259,4.703515 1.10845,11.913609 -3.26573,15.007617 -4.68565,3.31432 -11.30004,2.737837 -16.7233,2.737837 M 69.818183,85.672725 62.740369,73.454544 59.345456,67.927271 49.309092,85.672725 H 49.163637 L 43.76998,73.890907 34.151636,53.090908 l -4.232231,-9.163636 -2.06576,-4.03347 -2.108485,-0.47476 -4.217887,-8.61e-4 2.999383,6.690909 5.44882,11.781818 18.606343,40.290908 h 0.290909 L 59.49091,79.41818 l 4.82077,8.581818 2.065039,4.072727 -0.521426,2.036363 -1.395921,3.054546 -5.405686,11.781816 -1.469439,3.19838 -1.2282,1.65114 -3.99241,0.24139 h -9.018182 l -0.145454,5.81818 h 17.309091 c 0.898336,-2.38012 2.07421,-4.66949 3.132684,-6.98182 1.842858,-4.02587 3.687611,-8.05087 5.539236,-12.07272 C 74.860531,88.463705 80.58696,76.150646 86.353136,63.854544 l 6.467249,-13.818182 c 0.522825,-1.112695 1.022701,-2.2375 1.561577,-3.342524 0.2909,-0.59652 0.61448,-1.286639 1.261195,-1.563672 0.673846,-0.288654 1.532378,-0.184366 2.247772,-0.184668 0.976083,-4.09e-4 2.490621,-0.268821 3.341801,0.308656 0.86506,0.586905 1.17945,2.113174 1.53635,3.036754 0.91885,2.377814 1.75523,4.815394 2.83092,7.127272 H 93.672729 l 2.996431,7.709091 6.05499,14.981818 3.45767,8.727272 H 86.400002 l 3.927273,-9.163636 -3.927202,2.13e-4 c -0.657893,0.001 -1.465323,-0.08812 -2.06377,0.241176 -1.115953,0.614062 -1.618119,2.733629 -2.10601,3.831338 -1.57935,3.553392 -3.439755,7.084278 -4.703019,10.763637 H 114.76364 L 106.91632,73.01818 102.10909,61.236362 h 11.78182 c -0.58541,-2.135334 -1.51852,-4.194771 -2.32463,-6.254545 -1.25052,-3.195357 -2.4864,-6.397177 -3.71772,-9.6 -0.5224,-1.358851 -1.04352,-2.719141 -1.58159,-4.071866 -0.23245,-0.584384 -0.45159,-1.345739 -0.98922,-1.728524 -0.61724,-0.439462 -1.58179,-0.307999 -2.29597,-0.308594 l -5.090869,-1.07e-4 c -1.454394,0 -2.908958,-0.0066 -4.363334,8.61e-4 -0.666575,0.0034 -1.452584,-0.05104 -2.008239,0.385982 -1.057023,0.831339 -1.568244,2.788388 -2.121192,3.976794 l -4.218182,9.018181 c -3.500248,7.52286 -7.060511,15.017889 -10.550692,22.545454 -1.608337,3.46883 -3.460485,6.894354 -4.811089,10.472727 M 370.76364,70.981816 V 43.927272 c 4.92785,0 9.96336,-0.215039 14.83637,0.652299 2.65099,0.471839 5.3016,1.234854 7.56342,2.743865 5.3282,3.554803 6.5511,11.395987 3.37394,16.822017 -1.15984,1.980775 -2.93797,3.491535 -4.97373,4.521218 -6.25848,3.165523 -14.01917,2.315145 -20.8,2.315145 m 82.32728,-26.327272 -18.03637,8.279403 -18.18181,8.302415 v 0.145455 l 24.72727,11.318767 11.63636,5.26305 c 0,-1.243075 0.41598,-3.43022 -0.30866,-4.501775 -0.43392,-0.641642 -1.3456,-0.929936 -2.01882,-1.236816 l -4.21755,-1.918369 c -0.64595,-0.296608 -1.46647,-0.584641 -1.87358,-1.207306 -0.60799,-0.929936 -0.30866,-2.585214 -0.30866,-3.644824 v -8.872727 c 0,-0.917836 -0.22493,-2.252965 0.30866,-3.059056 0.43147,-0.651784 1.34042,-0.942063 2.01883,-1.251722 l 4.21754,-1.930335 c 0.63555,-0.291637 1.46683,-0.56899 1.87358,-1.177229 0.69758,-1.043208 0.3837,-3.332794 0.16321,-4.508931 M 0.14545455,49.599999 v 42.61818 H 39.127274 L 38.400001,90.472725 H 1.8909091 V 51.345453 H 19.927273 L 19.345455,49.599999 H 0.14545455 m 115.92727545,0 c 0.18995,0.479563 0.37038,1.021955 0.78254,1.361923 0.89383,0.737269 2.79069,0.383531 3.87201,0.383531 H 132.8 v 39.127272 h -12.21818 c 0.19443,0.48386 0.38521,1.018927 0.80115,1.361923 0.81991,0.676127 2.42894,0.383531 3.41703,0.383531 h 9.74546 v -42.61818 h -18.47273 m 324.5091,5.527272 v 12.363636 l -5.96364,-2.505602 -8.14545,-3.603488 6.10909,-2.828196 8,-3.42635 M 87.272729,136.72727 H 48.145456 v -10.18182 h -1.745455 v 11.92727 H 89.018184 V 99.636361 l -1.505203,0.475619 -0.240234,2.43348 -1.8e-5,5.81817 v 28.36364 M 291.49092,121.30909 h -13.81819 v 4.07272 h 9.01819 c -0.25732,1.67488 -0.65681,3.21801 -1.59583,4.6545 -0.78081,1.19443 -1.78084,2.2193 -2.91403,3.08185 -1.30373,0.99237 -2.77514,1.78514 -4.36287,2.21136 -6.08299,1.63299 -12.23432,-2.52439 -14.8067,-7.91134 -4.27098,-8.94412 2.31099,-20.02147 12.33397,-20.1839 4.53915,-0.0736 8.24764,2.42241 11.2,5.63844 0.80392,-0.66017 2.40185,-1.65296 2.56112,-2.76709 0.10681,-0.74727 -0.63736,-1.40065 -1.11329,-1.86858 -1.34565,-1.32307 -2.93885,-2.41188 -4.64783,-3.21166 -4.92662,-2.3056 -10.93828,-2.39925 -15.85455,-0.0119 -2.64566,1.28473 -4.98066,3.32096 -6.72382,5.67749 -5.98999,8.0977 -3.92417,19.82853 4.10564,25.73277 5.24114,3.85375 12.95931,4.39406 18.61818,1.08814 2.74674,-1.60466 4.90578,-4.04223 6.29189,-6.89369 1.42608,-2.9337 1.70806,-6.09562 1.70812,-9.30909 m 71.70909,-17.95665 c -2.28189,0.23885 -4.5135,0.9028 -6.54546,1.97126 -8.92365,4.69234 -12.35692,16.16149 -7.5777,25.00357 1.02841,1.90264 2.45121,3.5854 4.08701,4.9946 1.71044,1.47347 3.67557,2.62438 5.81797,3.33907 2.70593,0.90268 5.59875,1.18691 8.43636,0.88433 2.50121,-0.2667 4.9478,-1.01591 7.12727,-2.28194 2.03324,-1.1811 3.81971,-2.75581 5.26385,-4.60884 1.29244,-1.6584 2.25061,-3.52268 2.88146,-5.52722 2.91943,-9.27629 -2.10777,-19.61634 -11.34531,-22.84903 -2.5815,-0.9034 -5.4261,-1.21044 -8.14545,-0.9258 M 144.14546,104 v 34.90909 c 5.55357,0 12.26165,0.99917 17.0142,-2.5415 4.19821,-3.12768 4.27484,-9.67636 0.92021,-13.43775 -1.23741,-1.38745 -2.80339,-2.12001 -4.55259,-2.63893 1.07228,-0.76598 2.02487,-1.5908 2.66559,-2.76446 2.0327,-3.72353 1.07711,-9.28059 -2.66607,-11.54709 C 153.54995,103.57136 148.59464,104 144.14546,104 m 35.92727,0 v 17.74545 c 0,4.01004 -0.20014,8.15734 1.82065,11.78182 4.67031,8.37661 18.14544,8.17074 22.33384,-0.58182 1.73711,-3.63004 1.44551,-7.58013 1.44551,-11.49091 V 104 h -4.36363 v 18.90909 c 0,3.48607 0.0595,7.38578 -2.4094,10.16569 -3.78803,4.26528 -11.27548,2.89611 -13.41387,-2.31115 -1.32496,-3.22648 -1.04946,-6.91642 -1.04946,-10.32727 V 104 h -4.36364 m 43.05455,0 v 34.90909 h 4.36363 v -14.69091 c 1.90318,0.0456 2.56089,1.15381 3.58557,2.61822 0.74565,1.06566 1.49304,2.13007 2.23262,3.19996 1.3772,1.99229 2.76807,3.97521 4.15087,5.96363 0.60326,0.86747 1.2267,2.16888 2.20367,2.66771 0.58107,0.29668 1.30403,0.23911 1.93661,0.24094 l 3.19976,4.5e-4 -10.9091,-15.12728 c 2.32559,-0.56854 4.32525,-1.37729 5.93882,-3.23179 3.50751,-4.03126 3.01806,-10.78868 -1.15196,-14.17666 C 234.5722,103.03775 228.04331,104 223.12728,104 m 83.63636,0 v 34.90909 c 6.23931,0 12.79134,0.54954 18.47273,-2.55892 2.5533,-1.39699 4.76882,-3.33678 6.2272,-5.87745 3.98399,-6.94052 2.7348,-17.36602 -3.75451,-22.32215 C 321.58264,103.4716 314.03257,104 306.76364,104 m 92.36364,0 v 34.90909 h 4.36364 v -14.69091 c 0.56953,0.0136 1.16182,0.0112 1.66924,0.30871 0.70672,0.41433 1.16666,1.22085 1.62515,1.87355 l 2.53103,3.63592 c 1.38907,1.98507 2.77639,3.97151 4.15533,5.96363 0.61861,0.89368 1.25764,2.18275 2.28203,2.66771 1.3636,0.64554 3.56477,0.24139 5.04631,0.24139 l -10.90909,-15.12728 c 2.19066,-0.53555 4.13373,-1.25265 5.70678,-2.95335 3.71623,-4.01782 3.38857,-10.98912 -0.91928,-14.46523 C 410.56297,103.04238 404.04692,104 399.12728,104 m 36.50909,0 v 34.90909 h 4.36364 v -17.16364 h 12.07273 v -3.92727 h -12.07273 v -9.89091 H 452.5091 V 104 h -16.87273 m -72,3.40831 c 2.39592,-0.21573 4.89886,0.0223 7.12727,0.9654 1.49457,0.63255 2.87973,1.53444 4.05409,2.65521 6.95195,6.63479 5.2055,18.4838 -3.18136,23.01152 -1.52138,0.82131 -3.22276,1.32282 -4.94545,1.47044 -2.19013,0.18769 -4.49762,-0.008 -6.54546,-0.84385 -3.56154,-1.45284 -6.5588,-4.37778 -7.96229,-7.97612 -2.55355,-6.54696 0.18616,-14.61297 6.50775,-17.86172 1.53526,-0.789 3.22802,-1.26624 4.94545,-1.42088 m -215.12728,12.00987 v -11.49091 c 2.26094,2e-5 4.88148,-0.15503 6.81123,1.24977 2.59815,1.89139 2.45174,7.17325 -0.13385,9.00208 -1.92264,1.3599 -4.43851,1.23902 -6.67738,1.23906 m 78.98182,1.16364 v -12.65455 c 2.83772,0 6.01224,-0.0922 8.42154,1.67468 3.03919,2.22887 2.92076,7.48691 -0.28063,9.5266 -2.32521,1.48144 -5.48237,1.45148 -8.14091,1.45327 m 83.63637,14.39999 v -27.05454 c 4.73569,3.9e-4 9.90842,0.41839 13.81449,3.4048 5.82038,4.44999 5.89623,15.35824 0.28515,20.00796 -3.918,3.24671 -9.23412,3.64176 -14.09964,3.64178 m 92.36364,-14.39999 v -12.65455 c 2.78221,0 5.88409,-0.0932 8.28366,1.56587 3.1598,2.18466 3.13353,7.55682 -0.1414,9.63541 -2.32987,1.47874 -5.48037,1.45148 -8.14226,1.45327 m -254.98183,14.39999 v -12.07272 c 3.09177,0 6.79217,-0.2001 9.44628,1.68222 3.30925,2.34698 2.65138,7.69754 -0.86677,9.48124 -2.58339,1.30979 -5.78009,0.90926 -8.57951,0.90926 z"
       id="path6" />
  </g>
</svg>
